<svg height="2500" viewBox="0 0 726.08 726.65" width="2498" xmlns="http://www.w3.org/2000/svg"><path d="m649.04 110.08c-.41 0-.21-4.93-6.45-3.07-.61.18-.05 4.07-4.05 4.07h-41.5c-.28-1.7.39-9.62 0-10.01-.37-.37-7.41.27-9 .01v-26.5c0-1.38-4.22-2.58-4.92.13-.3 1.18.91 3.96.97 5.83.08 3-.18 22.43-1.24 23.35-.69.59-6.26.92-6.72.1-.67-1.18.91-8.91-1.59-8.91h-145.5c-.3 0 .3-6 0-6h-15.5c-3.44 0-3.17-17.31-7.5-13.01-.62.62-1.21 15.29-3.57 16.94-2.39 1.67-26.28 5.07-27.95 3.08-.52-.62-5.56-14.53-5.36-15.32.92-3.66 14.6-5.06 18.65-15.42 5.4-13.81 1.39-23.16-1.72-35.82-.5-2.01.37-4.52-.26-6.75-.86-3.1-12.9-7.53-16.46-9.53-5.71-3.21-11.51-6.56-17.17-9.87-1.22-.72-4.19-2.92-12.33-3.31h-25.83v.01l-11.31 5.19c-23.69 12.24-32.64 41.88-28.44 67.06.39 2.33 4 12.99 3.65 13.6-2.7 4.68-10.7-1.95-14.64-2.62-52.68-8.86-70.36 64.75-67.25 104.25.58 7.29 3.56 14.3 3.98 21.51-1.08.38-2.18-.99-2.49-.99h-26c-4.73 0-5.32 12.74-5.54 16.45-1.04 16.83-3.9 32.3-4.95 48.06-.2 3.01-.99 10.91 1.68 12.3 3.25 1.68 16.09 3.13 20.81 4.2 5.22 1.19-3.28 3.08-5.02 3.98-3.35 1.73-8.37 3.71-9.27 7.72-.97 4.38-.53 16.78-.2 21.78.78 11.96 4.44 25.01 4.98 37.01.1 2.31.39 5.87-.02 7.97-.78 4.02-3.99 3.02-6.26 4.53-.72.49-.95 1.64-1.93 2.33-1.5 1.05-3.43 1.19-4.81 2.41-3.39 3.02-5.99 15.24-4.95 19.57.2.81 1.81.27 2.06 2.12.7 5.35-.43 25.64 3.33 28.65 1.98 1.59 6.11.34 6.61 4.47l-9.06 53.99c.22 6.81 1.4 14.54 1.67 21.11.64 15.87-27.83 48.26-33.57 66.9-2.47 8.02-2.01 16.55-4.59 24.41-2 6.11-8.66 12.48-11.2 19.81-5.28 15.24-1.12 17.54.64 30.81 1.71 12.93-9.55 41.92-12.81 56.01-1.62 6.99-3.28 14.18-3.1 21.37v.04c-.1 0-.2 0-.3.01l56.93-.15s-.02-.01-.03-.01c-5.13-1.86-5.07-29.95-4.59-35.34.71-7.93 6.02-24.94 10.55-31.45 3.28-4.7 9.96-7.52 12.85-12.15 3.89-6.25 6.24-18.09 9.41-25.59 4.29-10.11 13.41-24.65 14.92-35.08 2.4-16.6-3.03-21.6 8.84-37.16 7.05-9.24 15.05-18.06 22.44-26.85 5.39-6.41 5.5-18.72 7.72-26.99 2.82-10.52 9.87-29.37 15.63-38.37 3.05-4.78 7.84-8.81 10.45-13.55 1.17-2.14 2.81-9.01 3.19-9.33 3.36-2.82 8.94 11.03 10.32 12.68 3.87 4.61 16 2.87 20.21 8.29l36.66 54.75c5.16 2.54 20.07-.43 22.85 2.73 5.74 6.54 5.76 20.42 3.27 28.37-.94 3.01-2.92 4.77-3.82 7.19-6.76 18.13.81 56.23 5.58 75.42 4.02 16.17 7.71 28.81 7.71 46.08 0 9.35-5.03 19.37-7.3 28.49-2.3 9.28-4.08 18.59-3.49 28.01h113.99c2.24-19.87-22.35-17.39-34.46-28.04-20.01-17.59-24.38-31.03-22.57-57.5.68-10.05 5.26-18.89 6.02-27.98.87-10.39-2.69-20.35-2.02-31.02 1.8-28.93 13.52-64.17 1.23-92.16-2.26-5.13-6.63-8.91-9.07-13.93-14.03-28.84-19.4-55.02-39.31-82.69-11.63-16.16-30.72-29.52-21.7-52.57 2.42-1.71 12.86 5.11 18.83.33 12.67-10.14 11.14-36.34 12.07-50.93.72-11.41 5.01-29.29-1.56-39.46-2.38-3.69-13.42-9.39-13.3-11.35.2-3.38 3.85-10.76 4.36-14.72 17.63 8.55 34.01 19.89 53.28 24.72 17.14 4.3 20.67 4.77 34.68-5.73 10.87-8.15 16.56-13.52 19.87-27.13 1.05-4.32 2.25-18.21 4.17-20.84 1.33-1.83 8.82-2.45 9.36-4.57-.52-8.69-2.58-18.4-2.86-26.94-.09-2.7-.38-6.23.2-8.78 1.25-5.6 12.15-13.72 15.79-19.22 1.76-2.67 1.97-6.22 4.5-8.49h68.5c.25-1.48-.36-7.66-.01-8.01.52-.52 12.04.48 14.49-.01 2.24-.45 2.91-2.51 4.21-2.83 4.37-1.07 36.44-.89 41.87-.22 3.85.47 2.94 2.78 4.14 3.09 6.86 1.8 21.51-1.39 29.3-.02v-9zm-193.45 42.04c-.48 1.61-14.38 22-16.13 23.88-.77.83-1.42 2.33-2.82 2.04-1.34-.29-9.41-13.12-10.04-15.01-3.71-11.03 7.27-8.32 12.01-13.89 2.15-2.53 3.13-9.62 3.53-9.96.86-.75 10.66.33 12.9-.11-.78 4.45 1.87 8.61.55 13.05z" fill="#f7f7f7"/><path d="m726.08 651.61c-3.12 37.91-32.49 69.99-70.56 74.45l-180.74.02h-4.75c2.24-19.87-22.35-17.39-34.46-28.04-20.01-17.59-24.38-31.03-22.57-57.5.68-10.05 5.26-18.89 6.02-27.98.87-10.39-2.69-20.35-2.02-31.02 1.8-28.93 13.52-64.17 1.23-92.16-2.26-5.13-6.63-8.91-9.07-13.93-14.03-28.84-19.4-55.02-39.31-82.69-11.63-16.16-30.72-29.52-21.7-52.57 2.42-1.71 12.86 5.11 18.83.33 12.67-10.14 11.14-36.34 12.07-50.93.72-11.41 5.01-29.29-1.56-39.46-2.38-3.69-13.42-9.39-13.3-11.35.2-3.38 3.85-10.76 4.36-14.72 17.63 8.55 34.01 19.89 53.28 24.72 17.14 4.3 20.67 4.77 34.68-5.73 10.87-8.15 16.56-13.52 19.87-27.13 1.05-4.32 2.25-18.21 4.17-20.84 1.33-1.83 8.82-2.45 9.36-4.57-.52-8.69-2.58-18.4-2.86-26.94-.09-2.7-.38-6.23.2-8.78 1.25-5.6 12.15-13.72 15.79-19.22 1.76-2.67 1.97-6.22 4.5-8.49h68.5c.25-1.48-.36-7.66-.01-8.01.52-.52 12.04.48 14.49-.01 2.24-.45 2.91-2.51 4.21-2.83 4.37-1.07 36.44-.89 41.87-.22 3.85.47 2.94 2.78 4.14 3.09 6.86 1.8 21.51-1.39 29.3-.02v-9h-21c-.41 0-.21-4.93-6.45-3.07-.61.18-.05 4.07-4.05 4.07h-41.5c-.28-1.7.39-9.62 0-10.01-.37-.37-7.41.27-9 .01v-26.5c0-1.38-4.22-2.58-4.92.13-.3 1.18.91 3.96.97 5.83.08 3-.18 22.43-1.24 23.35-.69.59-6.26.92-6.72.1-.67-1.18.91-8.91-1.59-8.91h-145.5c-.3 0 .3-6 0-6h-15.5c-3.44 0-3.17-17.31-7.5-13.01-.62.62-1.21 15.29-3.57 16.94-2.39 1.67-26.28 5.07-27.95 3.08-.52-.62-5.56-14.53-5.36-15.32.92-3.66 14.6-5.06 18.65-15.42 5.4-13.81 1.39-23.16-1.72-35.82-.5-2.01.37-4.52-.26-6.75-.86-3.1-12.9-7.53-16.46-9.53-5.71-3.21-11.51-6.56-17.17-9.87-1.22-.72-6.62-2.43-12.33-3.31h317.5c36.17 3.6 65.67 36.9 68.48 72.51z" fill="#f89d1c"/><path d="m314.04.08-11.31 5.19c-23.69 12.24-32.64 41.88-28.44 67.06.39 2.33 4 12.99 3.65 13.6-2.7 4.68-10.7-1.95-14.64-2.62-52.68-8.86-70.36 64.75-67.25 104.25.58 7.29 3.56 14.3 3.98 21.51-1.08.38-2.18-.99-2.49-.99h-26c-4.73 0-5.32 12.74-5.54 16.45-1.04 16.83-3.9 32.3-4.95 48.06-.2 3.01-.99 10.91 1.68 12.3 3.25 1.68 16.09 3.13 20.81 4.2 5.22 1.19-3.28 3.08-5.02 3.98-3.35 1.73-8.37 3.71-9.27 7.72-.97 4.38-.53 16.78-.2 21.78.78 11.96 4.44 25.01 4.98 37.01.1 2.31.39 5.87-.02 7.97-.78 4.02-3.99 3.02-6.26 4.53-.72.49-.95 1.64-1.93 2.33-1.5 1.05-3.43 1.19-4.81 2.41-3.39 3.02-5.99 15.24-4.95 19.57.2.81 1.81.27 2.06 2.12.7 5.35-.43 25.64 3.33 28.65 1.98 1.59 6.11.34 6.61 4.47l-9.06 53.99c.22 6.81 1.4 14.54 1.67 21.11.64 15.87-27.83 48.26-33.57 66.9-2.47 8.02-2.01 16.55-4.59 24.41-2 6.11-8.66 12.48-11.2 19.81-5.28 15.24-1.12 17.54.64 30.81 1.71 12.93-9.55 41.92-12.81 56.01-1.62 6.99-3.28 14.18-3.1 21.37v.04c-.1 0-.2 0-.3.01-15.79.37-30.06.56-44.97-5.25-28.41-11.08-48.39-38.78-50.77-69.22l.05-580.03c-.02-32.37 38.6-71.51 70.49-71.51zm45.49 697.99c-2.3 9.28-4.08 18.59-3.49 28.01h-3.89l-199.48-.14s-.02-.01-.03-.01c-5.13-1.86-5.07-29.95-4.59-35.34.71-7.93 6.02-24.94 10.55-31.45 3.28-4.7 9.96-7.52 12.85-12.15 3.89-6.25 6.24-18.09 9.41-25.59 4.29-10.11 13.41-24.65 14.92-35.08 2.4-16.6-3.03-21.6 8.84-37.16 7.05-9.24 15.05-18.06 22.44-26.85 5.39-6.41 5.5-18.72 7.72-26.99 2.82-10.52 9.87-29.37 15.63-38.37 3.05-4.78 7.84-8.81 10.45-13.55 1.17-2.14 2.81-9.01 3.19-9.33 3.36-2.82 8.94 11.03 10.32 12.68 3.87 4.61 16 2.87 20.21 8.29l36.66 54.75c5.16 2.54 20.07-.43 22.85 2.73 5.74 6.54 5.76 20.42 3.27 28.37-.94 3.01-2.92 4.77-3.82 7.19-6.76 18.13.81 56.23 5.58 75.42 4.02 16.17 7.71 28.81 7.71 46.08 0 9.35-5.03 19.37-7.3 28.49z" fill="#00428b"/><path d="m455.04 139.07c-.78 4.45 1.87 8.61.54 13.05-.48 1.61-14.38 22-16.12 23.88-.77.83-1.43 2.33-2.83 2.04s-9.41-13.12-10.04-15.01c-3.7-11.03 7.27-8.32 12.01-13.88 2.15-2.53 3.13-9.62 3.53-9.96.87-.75 10.67.33 12.91-.11z" fill="#f89d1c"/><path d="m350.28 1.08h.14l1.93.06m-38.31-1.07-2.61-.07" fill="none"/></svg>