<svg version="1.2" xmlns="http://www.w3.org/2000/svg" viewBox="0 0 193 193" width="193" height="193">
	<title>css-logo-svg</title>
	<style>
		.s0 { fill: #000000 } 
		.s1 { fill: #ffffff } 
	</style>
	<g>
		<path fill-rule="evenodd" class="s0" d="m172.9 58.2c14.4 27.5 11.1 66.4-8.6 90.4-21.9 28.4-57 38.9-91.1 30.3-26.8-6.8-52.9-32.4-59.2-59.6-9.2-35.1 2.8-69.9 31.6-91.7 23.1-17.8 59.9-22.2 86.5-8.9 16.8 6.9 32.9 23.1 40.8 39.5z"/>
		<path fill-rule="evenodd" class="s1" d="m169.3 63.1c12.5 26.1 7.8 62.2-11.2 83.9-19.8 22.8-47.1 33-77.3 27.6-18-4.5-35.9-12.5-47.4-29.3-18.7-22.3-22.1-59.9-8.2-85.5 15.2-28.9 45.1-45.4 77.3-43.4q29.4 2.9 51.3 23.7c6.3 7.2 11.5 14.8 15.5 23z"/>
		<path fill-rule="evenodd" class="s0" d="m102.8 27.2c0.6 2.7 3.6 5.6 1 8.3-0.9 1.4-1.6 3-1.3 4.9 4.4 3.1 5.6-5.7 10.9-2.6 1.2-1.1 2.4-2.1 4.2-1.7-0.4 5.1 5.3 2.4 7.9 3.6 2.6-0.5 7 1.5 7.3-2.6 0.5 0.2 1 0.4 1.6 0.3 0.3 1.4-1 2.9 1 3.3 2.3-0.5 5.2 1.4 5.6-1.6 0.7-0.2 1.4 0.4 1.6 0.6l-0.6 0.7c1.9 1.8 3.7 0.7 6.2 1 1.6-0.5-0.4-3.4 2-2.6 0.7 1.2-0.1 3 1.3 3.9-0.4 0.4-1 0.4-1.3 1 0 1.3 1.7 1.5 2.6 2h2c-0.1 0.3 0.2 0.4 0.3 0.6-5.7 2.1-15.2-2.2-17.1 6.3-1.3-0.5-2 1.2-2.6 1.9-1.2-0.2-2-1.4-3.3-1.6-0.2 5.5 2.5 10.5 5.3 15.1q-1.1 1.4-2.7 1.7c-3.4-4.6-4.7-10-6.9-15.2-1.5 1.1 0.3 2.9-0.3 4.6 0.3 1.2-0.3 1.7-1.3 1.7l-6.3-1.3c-3.1 1.7-4.3 7.7-8.8 6.2-0.6 0.4-0.9 1.4-1.7 1l-0.3-0.3c-2.2 0.9-4.6 2.4-7.2 1.3-1.4 0.3-3.2-0.3-4 1.3-0.6 3.1-0.2 6.6-1 9.6-1.5-0.5-3.1 0.5-3.3 1.9-0.2 2.3 0.5 4.2 0.7 6.3l2.6-0.7c1.6 3.3 5 5.8 6.9 8.9 2.2 2.7 5.6 5.4 5.6 9.2-0.8 0.2-1.3 1.1-2 1.7 0 2.7 3 4.2 4 6.5 3 3.3 4 7.4 7.2 10.6-1.2 8.3 3.5 14.3 2.3 22.7-0.7 6.1 4.5 9.9 6.3 15.1v4.3c-6.1 3.4-11.2-1.6-15.8-4.6-3.8-2.8-1.8-6.8-2.3-10.9-2.6-7.6-4.2-15.6-6.3-23.3-2.1-3.8-7.1-6.5-8.5-10.6-3.5-3.9-6.1-9.8-11.5-11.2-1.3 0.4-0.2 1.8-1 2.3q-1.5 2.9-2.8 5.8-1.3 3-2.4 6-1.1 3-2 6.1-1 3-1.7 6.2c-2.9 5-4.8 10.5-7.2 15.7-3.2 0.8-7.2-0.2-10.2 1 0.2 3 2.4 6 0.6 8.9-3-0.2-6.9 3.5-9.2-0.6-4.3-1.9-3.7-7.5-5.6-11.2 1.1-5.1 5.7-8.8 8.6-13.2 2.1-1.3 5-1.1 6.2-3.9 2.2-11.7 5.9-22.8 9.6-33.9 0.2-3.4-3.4-6.4-0.7-9.6-0.4-0.5-1.1-0.2-1.6-0.6 2.8-10.5 5.2-21.1 5.6-32.6 3.3-4.5 6.4-9.7 11.1-13.1 0.6-0.1 1.4 0.2 1.7-0.4-0.5-5.6 0.1-12.2 5.9-15.1 5.3-3 12.7-0.8 15.1 4.9z"/>
		<path fill-rule="evenodd" class="s1" d="m113.4 48.3c-1.9 3.8-7.9 0.4-9.9 5.3-1.3-0.2-2.7-0.6-3.3-1.7l5.3-4.3c2.8-0.2 5.2 0.5 7.9 0.7z"/>
	</g>
</svg>