<svg version="1.1" id="Layer_1" xmlns="http://www.w3.org/2000/svg" xmlns:xlink="http://www.w3.org/1999/xlink" x="0px" y="0px"
	 width="100%" viewBox="0 0 1024 1024" enable-background="new 0 0 1024 1024" xml:space="preserve">
<path fill="#FEFEFD" opacity="1.000000" stroke="none" 
	d="
M1025.000000,81.000000 
	C1025.000000,368.696045 1025.000000,656.392090 1024.652832,944.244751 
	C1023.016785,948.637451 1021.900696,952.935486 1020.408813,957.098816 
	C1014.086182,974.743225 1004.337769,989.968933 989.639099,1001.996948 
	C976.838196,1012.472107 962.786072,1019.987000 946.459106,1023.083618 
	C945.872681,1023.194824 945.481934,1024.337769 945.000000,1025.000000 
	C657.303955,1025.000000 369.607941,1025.000000 81.755211,1024.652832 
	C77.362480,1023.016846 73.064537,1021.900696 68.901207,1020.408813 
	C51.256832,1014.086182 36.031200,1004.337708 24.003040,989.639160 
	C13.527802,976.838318 6.012966,962.786133 2.916472,946.459229 
	C2.805243,945.872742 1.662160,945.481995 0.999988,945.000000 
	C1.000000,657.303955 1.000000,369.607941 1.347131,81.755211 
	C2.983224,77.362465 4.099331,73.064476 5.591192,68.901131 
	C11.913742,51.256756 21.662296,36.031166 36.360832,24.003065 
	C49.161705,13.527860 63.213791,6.013042 79.540756,2.916492 
	C80.127235,2.805263 80.518013,1.662182 81.000000,0.999999 
	C368.696045,1.000000 656.392090,1.000000 944.244751,1.347141 
	C948.637512,2.983225 952.935486,4.099305 957.098877,5.591176 
	C974.743225,11.913748 989.968811,21.662312 1001.996948,36.360851 
	C1012.472107,49.161743 1019.987000,63.213787 1023.083557,79.540749 
	C1023.194824,80.127228 1024.337891,80.518013 1025.000000,81.000000 
M513.916809,983.205872 
	C650.881348,983.217163 787.845886,983.233765 924.810425,983.208191 
	C928.126404,983.207581 931.501404,983.049133 934.748962,982.435547 
	C964.279968,976.856018 983.233276,953.742126 983.238220,922.926880 
	C983.282166,649.663635 983.274902,376.400391 983.186462,103.137161 
	C983.184631,97.531334 982.683777,91.757309 981.296631,86.348793 
	C974.532532,59.976555 951.861389,42.795979 923.869690,42.784084 
	C788.237793,42.726448 652.605957,42.757164 516.974060,42.767849 
	C515.649048,42.767952 514.323975,42.920795 512.079041,42.806179 
	C375.080658,42.794262 238.082260,42.777908 101.083870,42.798153 
	C97.930481,42.798618 94.721405,42.910149 91.632454,43.480087 
	C61.826538,48.979542 42.772282,72.156883 42.767990,103.226479 
	C42.730263,376.390625 42.735359,649.554810 42.821316,922.718933 
	C42.823082,928.329102 43.284908,934.107605 44.661869,939.520264 
	C51.419426,966.083496 74.206215,983.210144 102.524094,983.217468 
	C237.856171,983.252747 373.188263,983.234192 508.520355,983.223755 
	C510.013245,983.223633 511.506134,983.076416 513.916809,983.205872 
z"/>

<path fill="#4B7941" opacity="1.000000" stroke="none" 
	d="
M512.999023,982.997803 
	C511.506134,983.076416 510.013245,983.223633 508.520355,983.223755 
	C373.188263,983.234192 237.856171,983.252747 102.524094,983.217468 
	C74.206215,983.210144 51.419426,966.083496 44.661869,939.520264 
	C43.284908,934.107605 42.823082,928.329102 42.821316,922.718933 
	C42.735359,649.554810 42.730263,376.390625 42.767990,103.226479 
	C42.772282,72.156883 61.826538,48.979542 91.632454,43.480087 
	C94.721405,42.910149 97.930481,42.798618 101.083870,42.798153 
	C238.082260,42.777908 375.080658,42.794262 512.539307,43.372749 
	C513.066833,57.181484 513.134094,70.423645 513.109741,84.063721 
	C477.594208,194.250336 442.170380,304.039032 406.796936,413.671570 
	C291.181641,413.671570 175.944595,413.671570 59.766060,413.671570 
	C61.601002,415.126190 62.784645,416.139984 64.042679,417.051056 
	C154.559830,482.605957 245.061905,548.181702 335.676483,613.601685 
	C339.598633,616.433289 340.377045,618.755127 338.878845,623.316772 
	C303.960876,729.632751 269.202484,836.001038 234.423431,942.362610 
	C233.952301,943.803528 233.594330,945.281433 232.929749,947.644348 
	C235.428513,945.878845 237.064346,944.755737 238.666412,943.586426 
	C309.301025,892.034241 379.921661,840.462952 450.571411,788.931641 
	C471.285095,773.823181 492.080261,758.826538 512.890625,744.259033 
	C512.962952,801.732971 512.982788,858.726624 513.000732,916.206360 
	C513.049805,924.418640 513.100952,932.144714 513.105408,940.345581 
	C513.038879,954.879456 513.018921,968.938660 512.999023,982.997803 
z"/>
<path fill="#C2151C" opacity="1.000000" stroke="none" 
	d="
M513.201416,83.665810 
	C513.134094,70.423645 513.066833,57.181484 512.999268,43.470825 
	C514.323975,42.920795 515.649048,42.767952 516.974060,42.767849 
	C652.605957,42.757164 788.237793,42.726448 923.869690,42.784084 
	C951.861389,42.795979 974.532532,59.976555 981.296631,86.348793 
	C982.683777,91.757309 983.184631,97.531334 983.186462,103.137161 
	C983.274902,376.400391 983.282166,649.663635 983.238220,922.926880 
	C983.233276,953.742126 964.279968,976.856018 934.748962,982.435547 
	C931.501404,983.049133 928.126404,983.207581 924.810425,983.208191 
	C787.845886,983.233765 650.881348,983.217163 513.457886,983.101807 
	C513.018921,968.938660 513.038879,954.879456 513.562012,940.352051 
	C574.289429,939.883850 634.513733,939.883850 695.890808,939.883850 
	C642.192688,831.132751 608.939148,717.659363 599.114502,597.156921 
	C659.239929,602.187805 717.354797,613.130554 774.550537,629.259216 
	C831.828125,645.410950 886.618713,667.982117 940.594727,693.831116 
	C940.594727,572.067810 940.594727,451.244415 940.594727,329.319580 
	C832.406006,382.983673 719.201843,416.230774 599.097900,426.238617 
	C609.068115,305.410797 642.263245,192.108231 695.835693,83.665810 
	C634.132202,83.665810 573.666809,83.665810 513.201416,83.665810 
z"/>
<path fill="#FEFEFE" opacity="1.000000" stroke="none" 
	d="
M513.109741,84.063721 
	C573.666809,83.665810 634.132202,83.665810 695.835693,83.665810 
	C642.263245,192.108231 609.068115,305.410797 599.097900,426.238617 
	C719.201843,416.230774 832.406006,382.983673 940.594727,329.319580 
	C940.594727,451.244415 940.594727,572.067810 940.594727,693.831116 
	C886.618713,667.982117 831.828125,645.410950 774.550537,629.259216 
	C717.354797,613.130554 659.239929,602.187805 599.114502,597.156921 
	C608.939148,717.659363 642.192688,831.132751 695.890808,939.883850 
	C634.513733,939.883850 574.289429,939.883850 513.608643,939.877319 
	C513.100952,932.144714 513.049805,924.418640 513.463501,916.138916 
	C561.503174,915.585327 609.078064,915.585327 657.845947,915.585327 
	C607.881836,805.449707 579.615051,690.976379 572.828979,570.885498 
	C693.011536,577.704041 807.175354,606.201477 916.476746,655.928345 
	C916.476746,559.324158 916.476746,463.899414 916.476746,367.488678 
	C807.078796,417.235016 692.939575,445.738892 572.823792,452.531738 
	C579.619263,332.275116 608.001831,217.783722 657.703796,108.113396 
	C608.804077,108.113396 561.076965,108.113396 513.000427,108.113396 
	C513.000427,110.455284 513.000427,112.419044 513.000427,114.382805 
	C513.000427,322.017700 513.000854,529.652649 512.993652,737.287537 
	C512.993591,739.451233 512.892212,741.614990 512.838074,743.778687 
	C492.080261,758.826538 471.285095,773.823181 450.571411,788.931641 
	C379.921661,840.462952 309.301025,892.034241 238.666412,943.586426 
	C237.064346,944.755737 235.428513,945.878845 232.929749,947.644348 
	C233.594330,945.281433 233.952301,943.803528 234.423431,942.362610 
	C269.202484,836.001038 303.960876,729.632751 338.878845,623.316772 
	C340.377045,618.755127 339.598633,616.433289 335.676483,613.601685 
	C245.061905,548.181702 154.559830,482.605957 64.042679,417.051056 
	C62.784645,416.139984 61.601002,415.126190 59.766060,413.671570 
	C175.944595,413.671570 291.181641,413.671570 406.796936,413.671570 
	C442.170380,304.039032 477.594208,194.250336 513.109741,84.063721 
z"/>
<path fill="#242021" opacity="1.000000" stroke="none" 
	d="
M512.890625,744.259033 
	C512.892212,741.614990 512.993591,739.451233 512.993652,737.287537 
	C513.000854,529.652649 513.000427,322.017700 513.000427,114.382805 
	C513.000427,112.419044 513.000427,110.455284 513.000427,108.113396 
	C561.076965,108.113396 608.804077,108.113396 657.703796,108.113396 
	C608.001831,217.783722 579.619263,332.275116 572.823792,452.531738 
	C692.939575,445.738892 807.078796,417.235016 916.476746,367.488678 
	C916.476746,463.899414 916.476746,559.324158 916.476746,655.928345 
	C807.175354,606.201477 693.011536,577.704041 572.828979,570.885498 
	C579.615051,690.976379 607.881836,805.449707 657.845947,915.585327 
	C609.078064,915.585327 561.503174,915.585327 513.465454,915.652771 
	C512.982788,858.726624 512.962952,801.732971 512.890625,744.259033 
z"/>
</svg>