<?xml version="1.0" encoding="UTF-8" standalone="no"?>
<svg xmlns:dc="http://purl.org/dc/elements/1.1/" xmlns:cc="http://creativecommons.org/ns#" xmlns:rdf="http://www.w3.org/1999/02/22-rdf-syntax-ns#" xmlns:svg="http://www.w3.org/2000/svg" xmlns="http://www.w3.org/2000/svg" version="1.1" id="Layer_1" x="0px" y="0px" width="2599.7673" height="2274.9912" viewBox="0 0 2599.7674 2274.9912" enable-background="new 0 0 1260.84 761.419" xml:space="preserve"><metadata id="metadata1467"><rdf:RDF><cc:Work rdf:about=""><dc:format>image/svg+xml</dc:format><dc:type rdf:resource="http://purl.org/dc/dcmitype/StillImage"/><dc:title/></cc:Work></rdf:RDF></metadata><defs id="defs1465"/><path d="m 1002.9668,302.08117 c 13.8181,-16.0578 -30.41888,-17.68666 -30.41888,-17.68666 28.39638,5.61955 16.60076,33.74445 30.41888,17.68666 z" id="path530" style="fill:#ec1c24;stroke-width:13.57379341"/><path d="m 146.10755,1933.0945 c -13.24802,-8.1443 -31.04326,-4.52 -19.43766,9.3252 10.92689,13.0444 32.68569,-1.1945 19.43766,-9.3252 z" id="path532" style="fill:#ec1c24;stroke-width:13.57379341"/><path d="m 79.826723,1955.6678 c 23.645547,15.6505 26.550337,-26.4283 13.261594,-22.2883 0,0 -36.907141,6.6377 -13.261594,22.2883 z" id="path534" style="fill:#ec1c24;stroke-width:13.57379341"/><path d="m 924.08949,359.93267 c 32.92999,3.21698 53.82007,-40.16486 37.76227,-49.01497 -16.08491,-8.83653 -15.27052,27.32404 -15.27052,27.32404 -6.40676,-1.60171 -55.42174,18.47392 -22.49175,21.69093 z" id="path536" style="fill:#ec1c24;stroke-width:13.57379341"/><path d="m 933.72694,316.53725 c 13.66877,-5.63314 -26.10241,-31.51835 -17.65955,-16.07138 0,0 4.00429,21.70449 17.65955,16.07138 z" id="path538" style="fill:#ec1c24;stroke-width:13.57379341"/><path d="m 984.32999,257.08403 c 6.42044,-18.47393 -8.0221,-23.29263 -8.0221,-23.29263 -9.62385,16.87223 1.60167,41.78014 8.0221,23.29263 z" id="path540" style="fill:#ec1c24;stroke-width:13.57379341"/><path d="m 961.05097,278.76138 c 15.24333,-2.41613 -14.36113,-30.89395 -12.85439,-18.44678 -0.0126,0 -2.41614,20.84934 12.85439,18.44678 z" id="path542" style="fill:#ec1c24;stroke-width:13.57379341"/><path d="m 1096.8024,143.8243 c 19.2748,-11.2391 15.2705,-42.58099 0,-21.69093 0,0 -19.2747,32.93004 0,21.69093 z" id="path544" style="fill:#ec1c24;stroke-width:13.57379341"/><path d="m 1461.3131,66.915185 c 23.4826,0 0.1629,-26.794668 -5.4296,-18.677538 0,0 -18.0803,18.677538 5.4296,18.677538 z" id="path546" style="fill:#ec1c24;stroke-width:13.57379341"/><path d="m 1516.124,19.922712 c 16.8722,-10.8454613 -11.6056,-27.3104722 -12.0535,-16.2614045 0,0 -4.8051,27.1068655 12.0535,16.2614045 z" id="path548" style="fill:#ec1c24;stroke-width:13.57379341"/><path d="m 1023.6397,268.06524 c -7.2891,-8.26645 -30.48673,0 -30.48673,0 -11.51055,2.93194 37.77583,8.28001 30.48673,0 z" id="path550" style="fill:#ec1c24;stroke-width:13.57379341"/><path d="m 1245.0147,127.63076 c 39.7712,-16.73649 1.5203,-22.09813 -5.4159,-15.52842 0,0 -10.8455,12.37931 -22.899,15.52842 -12.0535,3.14912 -11.4428,16.7365 28.3149,0 z" id="path552" style="fill:#ec1c24;stroke-width:13.57379341"/><path d="m 27.418308,1955.6678 c -16.872226,1.208 -12.650776,21.6908 -12.650776,21.6908 -13.85884321,4.8188 -15.6641577,11.4428 -14.45609007,18.0803 1.20806757,6.6241 18.08029307,13.8589 30.12024707,0 12.053529,-13.8588 13.858843,-40.9793 -3.013381,-39.7711 z" id="path554" style="fill:#ec1c24;stroke-width:13.57379341"/><path d="m 1041.3807,183.1883 c 8.823,-19.27478 -23.3741,-36.43206 -16.8723,-17.67307 0,0 8.0221,36.96143 16.8723,17.67307 z" id="path556" style="fill:#ec1c24;stroke-width:13.57379341"/><path d="m 997.98525,221.7243 c 15.48765,-0.27147 -20.56434,-49.80224 -18.70467,-28.1249 -0.0127,0 3.21694,28.39637 18.70467,28.1249 z" id="path558" style="fill:#ec1c24;stroke-width:13.57379341"/><path d="m 1596.8609,1600.2108 c 3.5971,-15.1076 14.5104,-30.9618 27.8263,-33.4322 -1.1944,-0.055 -2.3482,-0.095 -3.5699,-0.1494 -43.4768,-1.8596 -86.9401,-3.7057 -130.4035,-5.5789 -17.5644,-0.7466 -50.6709,-65.765 -49.3135,-82.7865 2.8776,-35.8484 0.6516,-73.6379 -14.7548,-106.6629 -8.1985,-17.5644 -34.043,-57.9601 -56.4533,-59.3853 -78.4293,-4.9816 -156.8588,-9.9496 -235.2745,-14.9176 -40.6535,-2.5791 -81.2935,-8.6737 -121.7705,-13.1123 -48.41776,-5.3209 -84.49687,-5.606 -126.23632,-29.7266 -24.18851,-13.981 -20.42855,-15.5148 -20.42855,-43.599 0,-28.695 0,-57.39 0,-86.0714 0,-40.287 36.0656,-86.275 53.64365,-121.6076 18.97611,-38.18315 44.0741,-69.41646 69.83717,-103.60879 12.84075,-17.03518 28.72215,-33.90737 39.45905,-52.36771 9.108,-15.63705 10.9947,-42.37734 23.7134,-55.09601 14.8361,-14.83619 26.4146,-27.59555 36.6356,-40.77571 1.4932,-11.02192 5.3617,-21.01224 14.5919,-20.63216 7.1398,-11.14409 13.9538,-23.27906 21.1615,-37.78943 1.3574,-2.72833 2.674,-5.57885 3.9907,-8.37502 -0.8416,-17.33375 2.1582,-38.67175 20.3607,-44.8614 9.5967,-20.76792 20.1028,-41.06072 33.8531,-57.91937 30.6902,-37.65373 66.7422,-74.22152 93.4962,-114.72572 10.6555,-16.12565 14.6054,-37.51795 28.4099,-51.33606 18.9898,-18.98974 37.9931,-37.97949 56.9828,-56.96923 22.2475,-22.24745 85.6778,-21.7588 116.5718,-24.07991 48.4855,-3.65135 98.6135,0 147.2213,0 4.5472,0 9.6645,-0.33935 14.9855,-0.73299 -6.4476,-9.61024 -11.6056,-17.90382 6.0946,-21.77236 23.0212,-5.03586 24.0392,-23.76771 21.1615,-38.10164 -12.3522,-4.73723 -23.5776,-7.69633 -23.5776,-7.69633 2.4161,-38.54957 13.2615,-85.54205 -37.3551,-125.29969 -50.6031,-39.77122 -122.9108,44.57634 -122.9108,44.57634 -5.6194,8.83653 -23.279,-6.92264 -23.279,-6.92264 -30.5274,-44.67135 -63.471,2.10394 -61.0549,-7.75063 0.8416,-3.46132 0.1765,-7.53345 -1.3981,-10.92691 -3.5699,0.69227 -6.5019,1.41168 -8.5651,1.99535 0.2308,1.81889 -0.3529,4.60152 -2.4297,8.91799 -8.375,17.45589 -22.9532,0 -22.9532,0 9.6781,-6.71903 11.8635,-13.43806 10.6554,-19.36981 -2.4162,-2.21253 -4.9273,-4.20788 -7.4656,-6.10821 -7.2348,2.06322 -14.8769,2.42971 -21.2158,-0.81443 -6.7462,-3.44774 -7.1941,-8.15784 -5.253,-13.19373 -4.5337,-1.56098 -9.1896,-2.80977 -13.9403,-3.73279 1.018,4.4522 2.7283,9.13517 5.0902,13.69596 10.4517,20.08922 -21.691,20.08922 -16.0714,0 1.846,-6.59687 -0.4073,-11.70061 -4.2079,-15.60986 -7.0856,-0.4208 -14.3476,-0.24434 -21.7316,0.4615 -22.2203,17.80883 -22.3289,6.16251 -23.2655,23.9849 -1.0045,19.27479 -34.3418,15.27052 -10.5605,-13.65523 1.3846,-1.68316 2.5655,-3.27129 3.6514,-4.80513 -13.3567,3.50204 -26.9711,8.41575 -40.6535,14.3475 16.2478,-6.43398 10.0446,16.91295 -18.1075,32.23776 -71.9004,39.14682 -61.9236,13.4652 -61.815,13.18015 -78.6873,57.85151 -164.51437,172.998 -164.51437,172.998 -27.71767,3.62421 -34.34172,16.87222 -21.0801,23.49623 13.26162,6.62402 -3.61066,13.24803 -3.61066,13.24803 -35.54975,12.65077 -21.69087,56.03261 -21.69087,56.03261 -19.87207,13.85886 -13.85888,59.65683 -13.85888,59.65683 -14.45613,1.80532 -31.92558,15.66416 -15.0669,20.48285 16.88579,4.8187 12.66436,21.09369 12.66436,21.09369 -33.13361,31.32829 -30.73107,87.95817 -30.73107,87.95817 -60.85135,42.77103 -50.61665,118.68924 -50.61665,118.68924 0,0 -15.66416,-4.22145 -60.85135,41.56296 -45.18717,45.79797 -18.67754,137.97758 -18.67754,137.97758 83.13946,68.68346 -48.7978,123.50796 -61.44856,69.28066 -12.66435,-54.22728 -60.85132,-25.30158 -47.58973,9.0401 13.24803,34.3418 -12.66435,50.6167 -12.66435,50.6167 -1.80532,-75.30741 -20.48286,-60.2404 -44.57633,-45.798 -24.09348,14.4562 -33.74445,-8.4428 -65.05918,-27.7176 -31.32833,-19.27486 -122.10987,3.9499 -122.10987,3.9499 0,0 -17.56447,-81.27985 -83.53311,-103.62229 -82.74584,-28.02989 -155.84072,24.90789 -183.15119,105.23759 -27.31047,80.3161 57.03708,151.8229 79.52885,165.4781 22.49178,13.6553 91.56881,4.8323 91.56881,4.8323 -2.40255,39.3504 34.53174,44.1963 34.53174,44.1963 -0.9366,28.7629 16.87221,45.35 26.91682,62.5752 27.10688,-8.2122 -2.7962,-15.4742 -1.61527,-30.8261 1.20805,-15.6642 44.37272,-7.7099 39.05179,32.292 0,0 14.18463,-2.6197 9.74599,-21.3108 -4.43862,-18.6911 36.75782,-8.5651 33.74445,8.3071 -3.01338,16.8723 9.04014,18.0803 -28.31493,27.7177 -37.3415,9.6374 3.6242,-3.6106 2.41613,16.8722 0,0 -8.22573,12.8408 -22.60036,0 -10.43824,-9.3387 -13.08515,-6.2846 -34.32813,13.3024 -17.17084,35.0067 34.40956,11.3341 14.3475,44.4948 -20.89007,34.5453 -3.21698,62.6974 -3.21698,62.6974 32.93001,6.4339 35.34614,33.7308 35.34614,33.7308 0,0 -28.91217,0 -27.31046,16.0714 1.60171,16.0578 20.8765,19.2748 20.8765,19.2748 -20.89008,46.5852 40.9657,32.9436 8.03567,69.8779 -32.94359,36.9614 22.49179,29.7266 22.49179,29.7266 4.01783,26.5096 36.33704,51.2139 36.33704,51.2139 104.23316,1.8053 28.32851,45.7844 28.32851,45.7844 0,0 41.56296,53.6165 95.79026,55.4218 54.21372,1.8053 33.73087,18.0803 56.01905,25.8988 22.28814,7.8321 44.5899,-20.4828 68.68338,56.6299 24.09347,77.1262 94.59577,78.3208 167.48704,29.523 72.90486,-48.7979 10.24822,-87.3609 -22.89899,-82.5422 -33.13361,4.8186 -68.68336,34.9388 -80.12611,18.6775 -11.45627,-16.2614 44.57636,-30.1203 44.57636,-30.1203 70.48865,-9.6374 93.38771,-62.0594 93.38771,-62.0594 32.52276,-3.0134 160.86295,-39.7711 118.07835,-77.7235 -42.77094,-37.9523 31.9392,-50.6167 31.9392,-50.6167 -13.2616,28.3149 46.9924,25.9124 46.9924,25.9124 23.4963,48.7978 82.5423,23.4962 61.4486,14.4561 -21.0937,-9.0402 7.2349,-54.8245 33.1336,-2.4161 25.9124,52.4219 63.2675,-0.5973 63.2675,-0.5973 43.9791,55.4218 113.2733,82.5423 113.2733,82.5423 0,0 -28.2607,3.692 -35.5498,12.0535 -24.8672,28.5185 30.731,24.6907 65.0592,20.4828 34.3416,-4.2214 51.2139,-43.3682 58.4487,-22.2881 7.2349,21.0801 28.315,13.2479 27.7177,0 -0.5972,-13.2616 13.8588,-12.6508 13.8588,-12.6508 -28.9257,-28.9257 22.8991,-33.7309 22.8991,-33.7309 32.5363,-37.3551 44.5898,9.6374 60.2405,21.6909 15.6641,12.0535 48.2005,7.2349 33.7308,-26.5096 -14.4561,-33.7445 -44.5763,-38.5631 -38.5496,-63.8647 z M 1367.5181,200.04695 c 0,0 19.2748,27.31048 -12.0535,26.50962 -31.3282,-0.80085 12.0535,-26.50962 12.0535,-26.50962 z m 9.6374,118.09201 c 1.6153,20.87649 -13.6552,8.03568 -16.0713,0 -2.4162,-8.0357 -15.2569,-14.45608 -44.1827,-8.83656 0,0 58.6387,-12.05351 60.254,8.83656 z m -79.5152,-176.7308 c 10.4383,6.43399 16.0578,16.85866 0,24.09349 -16.0714,7.23483 0,-24.09349 0,-24.09349 z m -53.8201,346.22676 c -25.7088,20.07563 0,-24.0935 0,-24.0935 7.6692,-14.90401 25.6816,4.00428 0,24.0935 z m -11.4427,-325.54029 c 11.877,-2.63332 27.5005,11.45628 8.2122,17.07583 -19.2749,5.64669 -8.2122,-17.07583 -8.2122,-17.07583 z m -223.1396,206.26735 c 10.4518,2.0225 16.8723,16.45144 0,15.98993 -16.87221,-0.47509 0,-15.98993 0,-15.98993 z m 28.1249,26.88969 c 0,0 39.364,8.82297 -15.2569,8.82297 -54.62099,0 15.2569,-8.82297 15.2569,-8.82297 z m -55.02812,51.4311 c 13.8588,11.2391 -0.59725,19.2748 -12.03999,14.65972 0,0 -1.81888,-25.8988 12.03999,-14.65972 z m -25.3016,34.87109 c 15.0669,8.30716 -12.03992,25.16581 -16.8586,24.56856 0,0 1.79169,-32.87572 16.8586,-24.56856 z M 639.52851,1284.5795 c 8.14428,7.4655 -18.66397,41.21 -33.13364,-2.1718 0,0 25.00293,-5.3074 33.13364,2.1718 z m -36.74426,38.4952 c 9.14874,-7.6691 18.67754,5.416 18.67754,5.416 0,0 -22.60036,-12.0535 -15.06692,13.5602 0,0 -12.94938,-11.1441 -3.61062,-18.9762 z m -121.10539,-59.9418 c 15.09406,-26.6047 92.47826,19.5734 81.33417,30.8396 -11.14409,11.2663 -30.12024,-16.6821 -41.26433,-23.917 -11.14409,-7.2213 -25.61373,-5.4159 -25.61373,-5.4159 -8.72797,-9.0402 -29.55017,25.0979 -14.45611,-1.5067 z m 26.80825,45.7843 c 0,0 -1.80532,-28.3149 12.65076,-22.2881 14.45611,6.0132 6.6376,21.0801 -12.65076,22.2881 z m -40.96571,-33.7443 c 9.63738,0 -5.37522,24.7042 -6.02677,17.4694 0,0 -3.61062,-17.4694 6.02677,-17.4694 z m 124.10518,110.5584 c -9.63739,-8.4293 -36.75782,-17.7817 -28.61355,-0.2986 8.14428,17.4694 -9.93601,16.8722 -9.04014,9.6374 0.89587,-7.2349 -3.61062,-33.7309 -20.78148,-23.7948 -17.17086,9.9359 13.56022,37.3414 13.56022,37.3414 15.06691,43.0833 -24.7043,-7.832 -24.7043,-7.832 9.04014,-18.664 -14.75471,-26.5096 -31.32833,-23.795 -16.56003,2.7149 -3.61062,-18.3788 -3.61062,-18.3788 -24.40568,-2.4161 -16.57361,-12.6508 -44.27771,-19.5734 -27.7177,-6.9362 -40.66708,24.6907 -32.53639,21.3787 8.14427,-3.312 34.34169,3.0134 38.86176,8.7415 4.5201,5.7281 -9.65095,15.9628 -37.35506,7.832 -27.70412,-8.1306 -24.7043,-23.4961 -4.8187,-43.6803 19.88561,-20.1843 61.76075,-11.4428 61.76075,-11.4428 7.83209,3.0134 24.39212,-3.9228 24.39212,-3.9228 0,0 13.85884,-3.9228 -4.81869,12.3522 -18.67756,16.275 18.08029,26.211 30.71749,17.483 12.66435,-8.7415 49.70723,-25.9124 35.84839,-16.8722 -13.85886,9.0402 -12.35216,28.0162 -3.0134,30.731 9.33878,2.7148 20.18424,16.275 36.45923,4.6966 16.26141,-11.592 20.48286,-1.6832 21.37873,13.6823 0.90942,15.3521 -8.42935,14.1439 -18.08032,5.7146 z m 18.1346,-54.3765 c 8.38861,-9.7868 24.65002,24.2563 24.65002,24.2563 0,0 -33.02505,-14.4561 -24.65002,-24.2563 z m 31.27401,55.5845 c -32.48209,1.7375 9.63739,-5.7281 3.92283,-13.2615 -0.013,0 28.5457,11.5241 -3.92283,13.2615 z m 43.08324,-51.8246 c -6.92264,9.0401 -15.36554,3.0133 -19.27481,0 -3.92282,-3.0134 -8.26642,-6.9226 -8.26642,-6.9226 0,0 34.46385,-2.104 27.54123,6.9226 z m 16.85863,-20.4693 c -6.02675,10.2346 -14.75471,2.7148 -19.88559,-1.5067 0.013,-0.013 25.91236,-8.7415 19.88559,1.5067 z m 12.65079,63.5525 c -5.11732,-8.7415 17.48303,-31.9391 21.69093,-3.0134 0,0 -4.81872,-14.7683 -11.75492,-9.6374 -6.92264,5.1173 -6.92264,8.1307 -6.92264,11.4426 0,3.3121 2.72833,19.5735 -14.75471,21.691 0,0 16.87224,-11.7414 11.74134,-20.4828 z m 0,77.1127 c -21.98956,-35.8484 0,-43.0697 0,-43.0697 15.36553,21.9895 0,43.0697 0,43.0697 z m 12.05351,-81.6328 c 0,0 -5.11732,-1.5067 1.19449,0 6.3254,1.5067 12.35217,18.6775 12.35217,18.6775 0,0 0,0 -13.56021,-5.1716 -13.54666,-5.1581 0.013,-13.5059 0.013,-13.5059 z m 16.87224,62.358 c 0,0 -25.00293,-28.6135 -9.63739,-37.3415 19.3698,-11.0219 9.63739,37.3415 9.63739,37.3415 z" id="path560" style="fill:#ec1c24;stroke-width:13.57379341"/><path d="m 1220.1475,146.13185 c -0.041,0.0136 -0.068,0 -0.122,0.0271 -12.23,4.92729 -47.0332,-5.37523 -17.9853,-21.60949 54.6209,-30.527453 0,-16.87222 0,-16.87222 -44.9835,-67.475329 -69.8643,-4.00427 -77.0991,16.87222 -7.2213,20.89008 -16.8723,45.79799 -31.3283,36.14702 -14.4562,-9.63739 -27.3241,-23.29263 -36.9615,3.66492 -9.6374,26.95756 -4.0178,52.57131 -26.5096,34.89822 -22.4782,-17.67307 -31.3283,-4.81869 -20.0757,4.8187 11.2527,9.6374 6.434,16.0578 6.434,16.0578 -34.54528,13.65524 8.0357,40.16485 8.0357,40.16485 -4.8187,-28.12489 16.0714,-16.07137 16.0714,-16.07137 7.2212,22.50536 10.4382,0 10.4382,0 -17.6595,-22.49177 7.2348,-20.07563 7.2348,-20.07563 22.4918,-12.05353 -22.4917,-15.27053 15.257,-20.07565 37.7759,-4.8187 -0.8144,-4.01784 48.2006,-31.34188 48.9878,-27.32405 18.5146,18.77255 18.5146,18.77255 v 0.0271 c 5.6603,-4.16715 11.2934,-8.04926 16.8451,-11.56487 20.6321,-13.03084 41.9159,-24.67715 63.0503,-33.83947 z" id="path562" style="fill:#ec1c24;stroke-width:13.57379341"/><path d="m 1557.7006,1710.4707 c -9.6375,-6.624 -30.446,-4.8187 -30.446,-4.8187 0,0 1.5337,7.2213 -4.493,16.2614 -6.0268,9.0402 -11.4427,39.0111 12.0535,44.8207 23.4963,5.796 34.939,-7.452 36.1606,-20.1028 1.1809,-12.6644 -3.6377,-29.5365 -13.2751,-36.1606 z" id="path564" style="fill:#ec1c24;stroke-width:13.57379341"/><path d="m 1450.3997,901.21477 c -15.0805,-34.46384 -2.6469,-66.78298 -39.3911,-91.56875 -37.9388,-25.58662 -39.7712,-8.76867 -65.3985,20.72717 -21.053,24.25641 -42.1195,48.48563 -63.1861,72.74196 -13.7909,15.88137 -17.1301,42.18731 -23.6047,61.81506 -12.4201,37.72159 19.4376,57.05059 49.775,75.75539 61.0956,3.3391 123.413,0.054 182.554,-16.6008 25.2472,-7.0991 49.8157,-16.7229 72.8776,-29.2244 7.3299,-18.48746 -37.5994,-23.19761 -45.1464,-25.66805 -39.7305,-12.9494 -52.8427,-32.23773 -68.4798,-67.97758 z" id="path566" style="fill:#ec1c24;stroke-width:13.57379341"/><ellipse transform="rotate(-22.942045)" cx="1755.5298" cy="2466.9995" rx="21.080099" ry="23.496237" id="ellipse568" style="fill:#ec1c24;stroke-width:13.57379341"/><path d="m 2105.3488,653.12659 c 1.2081,-37.35507 -21.6909,-83.13947 -61.9779,-122.8971 -40.2871,-39.77123 -5.4974,-73.51567 -5.4974,-73.51567 4.8187,-12.05354 21.6909,-91.5824 -44.5763,-87.9582 -66.2673,3.61065 -109.6492,45.78441 -109.6492,45.78441 0,-8.4429 -19.2747,-72.29401 -50.6166,-84.34755 -31.342,-12.05352 79.5153,-80.73692 12.0535,-118.59423 -67.4754,-37.87088 -112.0517,74.0179 -112.0517,74.0179 -13.2615,-9.63739 -33.7309,7.22126 -33.7309,7.22126 -2.9455,-5.0223 -10.4246,-9.74598 -18.9083,-13.80455 -1.1266,4.94085 -1.7509,10.28892 -1.5881,16.20709 1.2081,42.17379 -7.2212,26.50963 -7.2212,26.50963 -10.1804,-4.8187 -9.8682,1.98179 -6.3797,11.02193 5.701,0.0814 11.1712,0.54294 15.9492,1.83244 20.9308,5.70101 43.3954,24.3514 62.3444,34.97967 3.1084,1.72389 5.5653,5.28023 7.6014,9.90887 v -0.16296 c 0,0 2.3889,6.62402 27.7313,50.84744 25.3286,44.22342 8.4292,-53.01923 6.0131,-68.68339 -2.4026,-15.66416 34.9525,39.75763 20.5779,76.09468 -14.3611,36.33704 17.9852,67.28528 17.9852,67.28528 -9.6374,-73.50208 65.0592,-12.03996 39.3504,-13.248 -25.7086,-1.20808 -17.673,16.8722 -17.673,16.8722 39.7576,32.53641 0,45.78441 0,45.78441 -26.5097,-53.01923 -20.4829,14.45609 -14.4561,44.58992 4.0586,20.29283 -37.2058,53.11426 -64.6112,72.4026 1.5473,63.68825 2.1039,127.39007 1.846,191.10544 -0.1356,30.90757 -0.448,61.82866 -0.9502,92.73615 -0.2851,16.94009 -6.9769,40.28702 4.6015,53.75224 22.2475,25.8716 35.0747,43.7484 65.928,57.2542 34.871,15.2842 68.5747,41.7395 68.5747,83.1395 9.556,33.9345 -0.1087,70.5159 -13.153,102.1292 -11.3341,27.4598 -14.904,35.6041 -42.9067,43.5176 -17.2931,4.873 -34.2196,11.8092 -49.0014,22.1389 -29.0615,20.3064 -41.4951,51.5939 -47.5762,85.4741 -3.9228,21.8131 -4.9951,44.1013 -4.4114,66.2266 0.7737,30.3916 -3.7871,40.1784 -23.9713,63.4438 -30.351,35.0068 -53.5487,36.405 -91.7589,34.8983 6.6105,1.7374 13.5331,6.9633 20.2657,17.4152 24.0935,37.3415 44.5763,30.1202 67.4753,-4.8187 22.899,-34.939 63.8647,18.0803 86.7501,38.5631 22.899,20.4829 93.985,-14.456 93.985,-14.456 2.4161,-54.2273 -34.939,-53.0193 -34.939,-53.0193 -45.7979,-93.985 25.3016,-85.5556 45.7844,-86.7637 20.4964,-1.1945 18.0803,-14.4561 50.6167,-28.9122 32.5228,-14.4561 83.1395,1.2081 96.4011,-16.8722 13.2616,-18.0803 49.395,-97.5955 44.5763,-138.5613 -4.8187,-40.9792 -3.6106,-65.0727 14.4697,-101.2197 18.0667,-36.1471 48.187,-127.7294 27.7176,-184.35926 -20.4828,-56.62985 24.0935,-84.34752 36.1471,-95.193 12.0399,-10.84548 15.6642,-44.57634 -6.0268,-85.55563 -21.718,-40.92501 -72.3212,-122.85641 -71.1131,-160.2115 z M 1831.8233,457.73184 c -45.7844,2.5926 -6.0268,-20.10278 -6.0268,-20.10278 0,0 51.8112,17.51019 6.0268,20.10278 z" id="path570" style="fill:#ec1c24;stroke-width:13.57379341"/><path d="m 92.477496,2015.9218 c 17.469474,-16.8722 -5.918171,-21.6909 -20.129934,-15.6642 -15.718451,6.6648 2.660465,32.5229 20.129934,15.6642 z" id="path572" style="fill:#ec1c24;stroke-width:13.57379341"/><path d="m 1702.8994,1736.7767 c 0,0 -55.4218,-2.2125 -49.4086,24.2971 6.0132,26.5097 39.7576,41.5766 54.2273,12.6508 14.4561,-28.9122 -1.2081,-33.5272 -4.8187,-36.9479 z" id="path574" style="fill:#ec1c24;stroke-width:13.57379341"/><path d="m 98.707867,1970.1374 c -13.73668,-0.081 -38.549571,16.8723 -12.759363,13.2616 25.817356,-3.6242 21.677356,-13.2209 12.759363,-13.2616 z" id="path576" style="fill:#ec1c24;stroke-width:13.57379341"/><path d="m 149.12094,1983.8877 c -4.8187,-9.5424 -11.45629,-11.4428 -19.27479,-6.8819 -6.61044,3.8549 -13.24802,21.4329 0,23.8491 13.24802,2.4161 24.09348,-7.4113 19.27479,-16.9672 z" id="path578" style="fill:#ec1c24;stroke-width:13.57379341"/><path d="m 78.02141,2054.4714 c -17.10298,19.7906 9.040145,43.9791 18.663965,19.8856 9.650965,-24.0935 -7.207688,-33.1336 -18.663965,-19.8856 z" id="path580" style="fill:#ec1c24;stroke-width:13.57379341"/><path d="m 1476.9636,1786.3754 c -10.8454,33.7308 22.899,56.6298 22.899,56.6298 0,0 0,0 3.6107,-14.456 3.6242,-14.4561 26.5095,-1.8053 23.4961,-31.9392 -3.0133,-30.1202 -39.1468,-43.9655 -50.0058,-10.2346 z" id="path582" style="fill:#ec1c24;stroke-width:13.57379341"/><ellipse cx="243.09213" cy="2067.1357" rx="109.05186" ry="111.45441" id="ellipse584" style="fill:#ec1c24;stroke-width:13.57379341"/><ellipse transform="rotate(-100.38735)" cx="-2091.9407" cy="1101.3776" rx="26.210693" ry="20.183998" id="ellipse586" style="fill:#ec1c24;stroke-width:13.57363701"/><ellipse cx="1323.037" cy="2236.428" rx="38.861771" ry="38.563145" id="ellipse588" style="fill:#ec1c24;stroke-width:13.57379341"/></svg>